<?xml version="1.0" encoding="utf-8"?>
<!-- Generator: Adobe Illustrator 26.0.3, SVG Export Plug-In . SVG Version: 6.00 Build 0)  -->
<svg version="1.1" id="Layer_1" xmlns="http://www.w3.org/2000/svg" xmlns:xlink="http://www.w3.org/1999/xlink" x="0px" y="0px"
	 viewBox="0 0 300 100" style="enable-background:new 0 0 300 100;" xml:space="preserve">
<style type="text/css">
	.st0{enable-background:new    ;}
	.st1{fill:#FFFFFF;}
</style>
<g class="st0">
	<path class="st1" d="M62.4,31.6L58.5,34v-4.8l4.6-3.2h5v20h-5.7V31.6z"/>
	<path class="st1" d="M79.5,46.3c-1.3,0-2.5-0.2-3.4-0.5c-1-0.3-1.8-0.8-2.4-1.4c-0.7-0.6-1.1-1.3-1.5-2.1c-0.3-0.8-0.5-1.7-0.5-2.6
		h5.2c0.1,0.4,0.1,0.7,0.2,1c0.1,0.3,0.3,0.5,0.5,0.7c0.2,0.2,0.4,0.4,0.7,0.5C78.6,42,79,42,79.5,42c0.8,0,1.5-0.3,1.8-0.8
		c0.4-0.5,0.6-1.2,0.6-2c0-0.9-0.2-1.6-0.7-2.1c-0.5-0.5-1.1-0.8-2-0.8c-0.8,0-1.5,0.1-2,0.4c-0.5,0.3-1,0.6-1.3,1h-3.4L72.9,26
		h13.5v4.2H77l-0.1,4.4c0.4-0.5,0.9-1,1.7-1.5c0.7-0.4,1.7-0.7,3-0.7c0.9,0,1.7,0.2,2.5,0.4c0.7,0.3,1.4,0.7,1.9,1.3
		c0.5,0.6,0.9,1.3,1.2,2.1c0.3,0.8,0.4,1.8,0.4,2.9c0,1.1-0.2,2-0.6,2.9c-0.4,0.9-0.9,1.6-1.6,2.2c-0.7,0.6-1.6,1.1-2.6,1.4
		C81.9,46.2,80.8,46.3,79.5,46.3z"/>
	<path class="st1" d="M94.5,35.8c-0.8,0-1.6-0.1-2.2-0.4c-0.7-0.3-1.2-0.6-1.7-1.1c-0.5-0.4-0.8-1-1.1-1.6c-0.2-0.6-0.4-1.3-0.4-2
		c0-0.7,0.1-1.4,0.4-2c0.3-0.6,0.6-1.1,1.1-1.6c0.5-0.4,1-0.8,1.7-1c0.6-0.3,1.3-0.4,2.1-0.4c0.7,0,1.4,0.1,2.1,0.4
		c0.6,0.2,1.2,0.6,1.7,1c0.5,0.4,0.8,1,1.1,1.6s0.4,1.3,0.4,2c0,0.7-0.1,1.4-0.4,2c-0.3,0.6-0.6,1.2-1,1.6c-0.5,0.5-1,0.8-1.7,1.1
		C96,35.7,95.3,35.8,94.5,35.8z M105.7,26h2.7L94.5,46h-2.7L105.7,26z M94.5,32.9c0.5,0,0.9-0.2,1.2-0.6c0.3-0.4,0.4-0.9,0.4-1.6
		s-0.1-1.2-0.4-1.6c-0.3-0.4-0.7-0.6-1.2-0.6s-0.9,0.2-1.2,0.6c-0.3,0.4-0.4,0.9-0.4,1.5c0,0.7,0.1,1.3,0.4,1.6
		C93.6,32.7,94,32.9,94.5,32.9z M105.6,46.3c-0.8,0-1.6-0.1-2.2-0.4c-0.7-0.3-1.2-0.6-1.7-1.1c-0.5-0.4-0.8-1-1.1-1.6
		c-0.2-0.6-0.4-1.3-0.4-2c0-0.7,0.1-1.4,0.4-2s0.6-1.1,1.1-1.6c0.5-0.4,1-0.8,1.7-1c0.6-0.3,1.3-0.4,2.1-0.4c0.7,0,1.4,0.1,2.1,0.4
		c0.7,0.2,1.2,0.6,1.7,1s0.8,0.9,1.1,1.5c0.3,0.6,0.4,1.3,0.4,2c0,0.7-0.1,1.4-0.4,2c-0.3,0.6-0.6,1.2-1,1.6c-0.5,0.5-1,0.8-1.7,1.1
		C107.1,46.2,106.4,46.3,105.6,46.3z M105.6,43.4c0.5,0,0.9-0.2,1.2-0.6c0.3-0.4,0.4-0.9,0.4-1.6c0-0.7-0.1-1.2-0.4-1.5
		c-0.3-0.4-0.7-0.6-1.2-0.6c-0.5,0-0.9,0.2-1.2,0.6c-0.3,0.4-0.4,0.9-0.4,1.5c0,0.7,0.1,1.2,0.4,1.6
		C104.7,43.2,105.1,43.4,105.6,43.4z"/>
	<path class="st1" d="M129.7,46.3c-1.6,0-3.1-0.3-4.4-0.8c-1.3-0.5-2.4-1.2-3.3-2.1c-0.9-0.9-1.6-2-2.1-3.2
		c-0.5-1.2-0.7-2.6-0.7-4.1v-0.2c0-1.5,0.3-2.9,0.8-4.2c0.5-1.2,1.3-2.3,2.2-3.2c1-0.9,2.1-1.6,3.4-2.1c1.3-0.5,2.7-0.7,4.2-0.7
		c1.5,0,2.9,0.2,4.2,0.7c1.3,0.5,2.4,1.1,3.4,2c0.9,0.9,1.7,1.9,2.2,3.2s0.8,2.6,0.8,4.2V36c0,1.5-0.3,3-0.8,4.2s-1.2,2.4-2.2,3.2
		c-0.9,0.9-2.1,1.6-3.4,2.1C132.8,46.1,131.3,46.3,129.7,46.3z M129.8,41.8c1.4,0,2.5-0.5,3.4-1.5c0.8-1,1.2-2.4,1.2-4.2v-0.2
		c0-1.8-0.4-3.2-1.2-4.2c-0.8-1-2-1.5-3.4-1.5s-2.5,0.5-3.4,1.5c-0.8,1-1.2,2.4-1.2,4.2v0.2c0,1.8,0.4,3.2,1.3,4.2
		C127.3,41.3,128.4,41.8,129.8,41.8z"/>
	<path class="st1" d="M143.9,26h13.5v4.4h-7.8v4.3h6.2v4.2h-6.2V46h-5.8V26z"/>
	<path class="st1" d="M160.8,26h13.5v4.4h-7.8v4.3h6.2v4.2h-6.2V46h-5.8V26z"/>
	<path class="st1" d="M188.5,26h7.4l6.4,20h-6.1l-1.1-3.7h-6.6l-1.1,3.7h-5.3L188.5,26z M189.7,38.3h4.4l-2.2-7.7L189.7,38.3z"/>
	<path class="st1" d="M205.3,26h6.5l6.4,11.3V26h5v20h-5.5l-7.3-12.6V46h-5V26z"/>
	<path class="st1" d="M232.6,37.4L226.1,26h6.2l3.4,6.7l3.4-6.7h5.5l-6.2,11.5V46h-5.8V37.4z"/>
</g>
<g class="st0">
	<path class="st1" d="M73,54h11.7v2h-9.3v7.1h7.2v2h-7.2v9H73V54z"/>
	<path class="st1" d="M97.7,74.3c-1.5,0-2.8-0.3-4-0.8c-1.2-0.5-2.3-1.3-3.1-2.2s-1.5-2-2-3.2c-0.5-1.2-0.7-2.5-0.7-3.9v-0.2
		c0-1.4,0.2-2.7,0.7-4s1.1-2.3,2-3.2c0.9-0.9,1.9-1.6,3.1-2.2c1.2-0.5,2.5-0.8,4-0.8s2.8,0.3,4,0.8c1.2,0.5,2.2,1.2,3.1,2.2
		c0.9,0.9,1.5,2,2,3.2c0.5,1.2,0.7,2.5,0.7,3.9v0.2c0,1.4-0.2,2.7-0.7,4c-0.5,1.2-1.1,2.3-2,3.2c-0.8,0.9-1.9,1.7-3.1,2.2
		C100.5,74,99.2,74.3,97.7,74.3z M97.7,72.3c1.1,0,2.1-0.2,3-0.6s1.6-1,2.3-1.7c0.6-0.7,1.1-1.6,1.4-2.6c0.3-1,0.5-2.1,0.5-3.3v-0.2
		c0-1.1-0.2-2.2-0.5-3.2c-0.3-1-0.8-1.9-1.4-2.6c-0.6-0.7-1.4-1.3-2.3-1.7s-1.9-0.6-3.1-0.6c-1.2,0-2.2,0.2-3.1,0.6
		c-0.9,0.4-1.7,1-2.3,1.7c-0.6,0.7-1.1,1.6-1.4,2.6s-0.5,2.1-0.5,3.3v0.2c0,1.2,0.2,2.3,0.6,3.3c0.4,1,0.9,1.9,1.6,2.6
		c0.7,0.7,1.4,1.3,2.3,1.7S96.7,72.3,97.7,72.3z"/>
	<path class="st1" d="M121.3,74.3c-1.5,0-2.8-0.3-4-0.8c-1.2-0.5-2.3-1.3-3.1-2.2s-1.5-2-2-3.2c-0.5-1.2-0.7-2.5-0.7-3.9v-0.2
		c0-1.4,0.2-2.7,0.7-4s1.1-2.3,2-3.2c0.9-0.9,1.9-1.6,3.1-2.2c1.2-0.5,2.5-0.8,4-0.8s2.8,0.3,4,0.8c1.2,0.5,2.2,1.2,3.1,2.2
		c0.9,0.9,1.5,2,2,3.2c0.5,1.2,0.7,2.5,0.7,3.9v0.2c0,1.4-0.2,2.7-0.7,4c-0.5,1.2-1.1,2.3-2,3.2c-0.8,0.9-1.9,1.7-3.1,2.2
		C124,74,122.7,74.3,121.3,74.3z M121.3,72.3c1.1,0,2.1-0.2,3-0.6s1.6-1,2.3-1.7c0.6-0.7,1.1-1.6,1.4-2.6c0.3-1,0.5-2.1,0.5-3.3
		v-0.2c0-1.1-0.2-2.2-0.5-3.2c-0.3-1-0.8-1.9-1.4-2.6c-0.6-0.7-1.4-1.3-2.3-1.7s-1.9-0.6-3.1-0.6c-1.2,0-2.2,0.2-3.1,0.6
		c-0.9,0.4-1.7,1-2.3,1.7c-0.6,0.7-1.1,1.6-1.4,2.6s-0.5,2.1-0.5,3.3v0.2c0,1.2,0.2,2.3,0.6,3.3c0.4,1,0.9,1.9,1.6,2.6
		c0.7,0.7,1.4,1.3,2.3,1.7S120.2,72.3,121.3,72.3z"/>
	<path class="st1" d="M139,55.9h-5.8v-2h14.1v2h-5.8V74H139V55.9z"/>
	<path class="st1" d="M151.4,54h2.4V72h9.2v2h-11.6V54z"/>
	<path class="st1" d="M175.3,74.3c-1.5,0-2.8-0.3-4-0.8c-1.2-0.5-2.3-1.3-3.1-2.2s-1.5-2-2-3.2c-0.5-1.2-0.7-2.5-0.7-3.9v-0.2
		c0-1.4,0.2-2.7,0.7-4c0.5-1.2,1.1-2.3,2-3.2c0.9-0.9,1.9-1.6,3.1-2.2c1.2-0.5,2.5-0.8,4-0.8s2.8,0.3,4,0.8c1.2,0.5,2.2,1.2,3.1,2.2
		c0.9,0.9,1.5,2,2,3.2c0.5,1.2,0.7,2.5,0.7,3.9v0.2c0,1.4-0.2,2.7-0.7,4c-0.5,1.2-1.1,2.3-2,3.2c-0.8,0.9-1.9,1.7-3.1,2.2
		S176.7,74.3,175.3,74.3z M175.3,72.3c1.1,0,2.1-0.2,3-0.6s1.6-1,2.3-1.7c0.6-0.7,1.1-1.6,1.4-2.6c0.3-1,0.5-2.1,0.5-3.3v-0.2
		c0-1.1-0.2-2.2-0.5-3.2c-0.3-1-0.8-1.9-1.4-2.6c-0.6-0.7-1.4-1.3-2.3-1.7c-0.9-0.4-1.9-0.6-3.1-0.6s-2.2,0.2-3.1,0.6
		c-0.9,0.4-1.7,1-2.3,1.7s-1.1,1.6-1.4,2.6c-0.3,1-0.5,2.1-0.5,3.3v0.2c0,1.2,0.2,2.3,0.6,3.3c0.4,1,0.9,1.9,1.6,2.6
		c0.7,0.7,1.4,1.3,2.3,1.7C173.3,72.1,174.2,72.3,175.3,72.3z"/>
	<path class="st1" d="M189.9,54h3.2l9.7,16.5V54h2.3v20h-2.8l-10.1-17.2V74h-2.3V54z"/>
	<path class="st1" d="M219.7,74.3c-1.5,0-2.9-0.3-4.1-0.8c-1.2-0.5-2.2-1.2-3-2.1c-0.8-0.9-1.5-2-1.9-3.2c-0.4-1.2-0.6-2.6-0.6-4
		v-0.2c0-1.5,0.2-2.8,0.7-4.1c0.5-1.2,1.1-2.3,2-3.2c0.9-0.9,1.9-1.6,3.1-2.1s2.5-0.8,3.9-0.8c1,0,1.9,0.1,2.9,0.4
		c0.9,0.2,1.7,0.6,2.5,1.1c0.7,0.5,1.4,1.2,1.8,2c0.5,0.8,0.8,1.8,1,2.9h-2.4c-0.3-1.6-0.9-2.7-1.9-3.4s-2.3-1-3.7-1
		c-1.2,0-2.2,0.2-3.1,0.6c-0.9,0.4-1.7,1-2.3,1.7c-0.6,0.7-1.1,1.6-1.4,2.6c-0.3,1-0.5,2.1-0.5,3.4v0.2c0,1.2,0.2,2.4,0.5,3.4
		c0.3,1,0.8,1.9,1.4,2.6c0.6,0.7,1.3,1.3,2.2,1.6c0.9,0.4,1.9,0.6,3.1,0.6c1.1,0,2-0.2,2.8-0.5c0.8-0.3,1.4-0.8,1.9-1.4
		c0.5-0.6,0.9-1.3,1.1-2c0.3-0.8,0.4-1.6,0.4-2.5h-5.9v-2h8.2v1.5c0,1.5-0.2,2.7-0.6,3.8s-1,2-1.8,2.8c-0.8,0.7-1.7,1.3-2.7,1.7
		C222.1,74.1,220.9,74.3,219.7,74.3z"/>
</g>
</svg>
